<?xml version="1.0" encoding="UTF-8"?>
<svg id="Layer_1" xmlns="http://www.w3.org/2000/svg" version="1.1" viewBox="0 0 441.84 420.8">
  <!-- Generator: Adobe Illustrator 29.5.0, SVG Export Plug-In . SVG Version: 2.1.0 Build 137)  -->
  <defs>
    <style>
      .st0 {
        fill: #fff;
      }

      .st1 {
        fill: #dc4241;
      }
    </style>
  </defs>
  <circle class="st0" cx="220.92" cy="210.4" r="183.66"/>
  <path class="st1" d="M230.94,67.63l17.3,2.49c103.09,20.27,151.19,143.52,85.49,227.79-76,97.47-229.13,58.95-253.05-60.15l-2.49-17.31c.3-6.59-.4-13.53,0-20.08,4.29-69.37,63.32-128.46,132.68-132.74h20.07ZM143.27,145.84c-8.04,1.93-13.29,8.15-14.34,16.32v96.47c1.07,8.61,7.15,15.42,15.86,16.48h152.23c8.96-.99,15.06-8.26,15.88-17.01v-95.41c-.83-8.77-6.92-16.02-15.88-17.01l-153.75.16h0Z"/>
  <path class="st1" d="M298.41,168.01v89.51c0,1.74-2.37,3.46-4.16,3.09h-146.66c-1.79.36-4.16-1.35-4.16-3.09v-89.51c1.17,0,2.14,1.04,3.04,1.69,23.68,17.04,45.94,37.98,69.46,55.43,3.98,2.47,5.99,2.47,9.96,0l72.51-57.13h.01Z"/>
  <polygon class="st1" points="283.35 160.2 220.66 209.87 158.48 160.2 283.35 160.2"/>
</svg>