<?xml version="1.0" encoding="UTF-8"?>
<svg id="Layer_1" xmlns="http://www.w3.org/2000/svg" version="1.1" viewBox="0 0 427 424">
  <!-- Generator: Adobe Illustrator 29.5.0, SVG Export Plug-In . SVG Version: 2.1.0 Build 137)  -->
  <defs>
    <style>
      .st0 {
        fill: #fff;
      }

      .st1 {
        fill: #dc4241;
      }
    </style>
  </defs>
  <circle class="st0" cx="213.5" cy="212" r="183.66"/>
  <path class="st1" d="M203.39,354.59c-127.42-8.1-179.97-172.45-79.75-253.17,102.16-82.29,251.07,4.86,230.23,134.21-8.62,53.49-48.96,98.81-101.01,113.4v-105.73h30.57l4.45-35.06h-35.02v-29.21c0-.23,1.47-3.8,1.77-4.35,1.49-2.77,3.73-4.54,6.69-5.54,1.86-.63,6.68-1.51,8.5-1.51h19.18v-31.72c-22.31-1.13-47.49-5.31-63.36,14.2-4.23,5.2-9.46,17.28-9.46,23.92v33.39l-.83.83h-29.74v35.61h30.57v110.74c-4.22-.2-8.58.27-12.79,0h0Z"/>
</svg>