<?xml version="1.0" encoding="UTF-8"?>
<svg id="Layer_1" xmlns="http://www.w3.org/2000/svg" version="1.1" viewBox="0 0 911.87 546.35">
  <!-- Generator: Adobe Illustrator 29.4.0, SVG Export Plug-In . SVG Version: 2.1.0 Build 152)  -->
  <defs>
    <style>
      .st0 {
        fill: #dc4142;
      }

      .st0, .st1 {
        stroke: #dc4142;
        stroke-width: 4px;
      }

      .st0, .st1, .st2 {
        stroke-miterlimit: 10;
      }

      .st3 {
        fill: #fff;
      }

      .st4, .st2 {
        fill: #dc4141;
      }

      .st1 {
        fill: none;
      }

      .st2 {
        stroke: #dc4141;
        stroke-width: .67px;
      }
    </style>
  </defs>
  <rect class="st3" x="75.9" y="58.41" width="769.86" height="433.72" rx="82.11" ry="82.11"/>
  <polygon class="st2" points="183.93 258.13 293.14 258.13 289.52 221.74 187.54 221.74 183.93 258.13"/>
  <polygon class="st2" points="189.76 195.35 287.3 195.35 283.68 158.96 193.38 158.96 189.76 195.35"/>
  <polygon class="st2" points="301.19 347.29 175.88 347.29 172.26 383.68 304.8 383.68 301.19 347.29"/>
  <polygon class="st0" points="135.23 454.32 128.23 439.44 145.07 440.71 135.23 454.32"/>
  <polygon class="st2" points="178.09 320.9 298.97 320.9 295.35 284.51 181.71 284.51 178.09 320.9"/>
  <path class="st1" d="M169.32,406.24l26.68-268.34-58.19-4.41-26.68,268.34"/>
  <polyline class="st1" points="169.76 401.88 169.1 408.41 135.01 456.5 110.92 404.01 111.61 397.07"/>
  <line class="st1" x1="152.13" y1="408.71" x2="179.18" y2="136.63"/>
  <line class="st1" x1="127.65" y1="406.86" x2="154.7" y2="134.78"/>
  <path class="st1" d="M196,137.91l-58.19-4.41,2.27-22.89c.84-8.47,9.47-14.73,19.26-13.99l22.72,1.72c9.79.74,17.05,8.21,16.21,16.68l-2.27,22.89h0Z"/>
  <polyline class="st1" points="111.13 401.84 127.65 406.86 140.36 402.75 152.16 408.38 169.32 406.24"/>
  <path class="st1" d="M307.74,406.24l-26.68-268.34,58.19-4.41,26.68,268.34"/>
  <polygon class="st0" points="341.83 454.32 348.84 439.44 332 440.71 341.83 454.32"/>
  <path class="st1" d="M281.07,137.91l58.19-4.41-2.27-22.89c-.84-8.47-9.47-14.73-19.26-13.99l-22.72,1.72c-9.79.74-17.05,8.21-16.21,16.68l2.27,22.89h0Z"/>
  <polyline class="st1" points="307.3 401.88 307.96 408.41 342.05 456.5 366.14 404.01 365.45 397.07"/>
  <line class="st1" x1="324.94" y1="408.71" x2="297.88" y2="136.63"/>
  <line class="st1" x1="349.41" y1="406.86" x2="322.36" y2="134.78"/>
  <polyline class="st1" points="365.93 401.84 349.41 406.86 336.7 402.75 324.9 408.38 307.74 406.24"/>
  <g>
    <path class="st4" d="M419.17,238.42c-4.73,0-8.92-.98-12.55-2.95-3.63-1.97-6.68-4.65-9.15-8.05-2.47-3.4-4.33-7.28-5.6-11.65-1.27-4.37-1.9-8.98-1.9-13.85,0-7.13,1.27-13.43,3.8-18.9,2.53-5.47,6.02-9.77,10.45-12.9,4.43-3.13,9.48-4.7,15.15-4.7,2.8,0,5.55.38,8.25,1.15,2.7.77,5.17,1.85,7.4,3.25,2.23,1.4,4.02,3.03,5.35,4.9,1.33,1.87,2.03,3.93,2.1,6.2,0,1.8-.52,3.33-1.55,4.6s-2.55,1.9-4.55,1.9c-1.6,0-2.88-.38-3.85-1.15-.97-.77-1.75-1.65-2.35-2.65-.73-1.47-1.78-2.82-3.15-4.05s-3.52-1.85-6.45-1.85c-3.47,0-6.43,1.03-8.9,3.1s-4.38,4.92-5.75,8.55-2.05,7.88-2.05,12.75.68,9.18,2.05,12.75c1.37,3.57,3.27,6.32,5.7,8.25,2.43,1.93,5.28,2.9,8.55,2.9,2.73,0,4.97-.7,6.7-2.1,1.73-1.4,3-3.47,3.8-6.2.4-1.47,1.18-2.65,2.35-3.55,1.17-.9,2.52-1.35,4.05-1.35,1.8,0,3.33.63,4.6,1.9,1.27,1.27,1.9,3.03,1.9,5.3-.07,2.33-.72,4.6-1.95,6.8s-2.95,4.17-5.15,5.9c-2.2,1.73-4.77,3.12-7.7,4.15-2.93,1.03-6.13,1.55-9.6,1.55h0Z"/>
    <path class="st4" d="M461.17,237.92c-1.87,0-3.43-.65-4.7-1.95-1.27-1.3-1.9-2.92-1.9-4.85v-60.5c0-1.93.63-3.53,1.9-4.8s2.83-1.9,4.7-1.9,3.53.63,4.8,1.9c1.27,1.27,1.9,2.87,1.9,4.8v60.5c0,1.93-.63,3.55-1.9,4.85s-2.87,1.95-4.8,1.95Z"/>
    <path class="st4" d="M488.47,179.42c-2.07,0-3.77-.68-5.1-2.05-1.33-1.37-2-3.28-2-5.75s.67-4.28,2-5.65,3.03-2.05,5.1-2.05c2.2,0,3.97.68,5.3,2.05,1.33,1.37,2,3.25,2,5.65s-.67,4.38-2,5.75-3.1,2.05-5.3,2.05ZM488.57,237.92c-1.87,0-3.45-.67-4.75-2s-1.95-2.9-1.95-4.7v-40.2c0-1.8.65-3.35,1.95-4.65,1.3-1.3,2.88-1.95,4.75-1.95s3.35.65,4.65,1.95,1.95,2.85,1.95,4.65v40.2c0,1.8-.65,3.37-1.95,4.7s-2.85,2-4.65,2Z"/>
    <path class="st4" d="M515.77,237.92c-1.8,0-3.35-.65-4.65-1.95s-1.95-2.88-1.95-4.75v-40.1c0-1.87.65-3.45,1.95-4.75,1.3-1.3,2.85-1.95,4.65-1.95,2,0,3.58.63,4.75,1.9,1.17,1.27,1.78,2.77,1.85,4.5l.2,4.6-2.9-.3c1.4-2.6,2.98-4.72,4.75-6.35s3.68-2.85,5.75-3.65c2.07-.8,4.17-1.2,6.3-1.2,3.87,0,7.37,1.07,10.5,3.2,3.13,2.13,5.43,5.1,6.9,8.9l-4.6,1.1c1.87-3.53,3.8-6.25,5.8-8.15,2-1.9,4.12-3.22,6.35-3.95s4.62-1.1,7.15-1.1c3.73,0,7.03.78,9.9,2.35s5.12,3.88,6.75,6.95c1.63,3.07,2.45,6.8,2.45,11.2v26.8c0,1.87-.65,3.45-1.95,4.75s-2.85,1.95-4.65,1.95-3.45-.65-4.75-1.95-1.95-2.88-1.95-4.75v-24.8c0-3.4-.8-5.92-2.4-7.55-1.6-1.63-3.87-2.45-6.8-2.45-2.07,0-3.82.38-5.25,1.15-1.43.77-2.52,1.9-3.25,3.4s-1.1,3.32-1.1,5.45v24.8c0,1.87-.65,3.45-1.95,4.75s-2.88,1.95-4.75,1.95-3.35-.65-4.65-1.95-1.95-2.88-1.95-4.75v-24.8c0-3.27-.8-5.77-2.4-7.5s-3.9-2.6-6.9-2.6c-2.07,0-3.9.42-5.5,1.25s-2.83,2.05-3.7,3.65c-.87,1.6-1.3,3.6-1.3,6v24c0,1.87-.65,3.45-1.95,4.75-1.3,1.3-2.88,1.95-4.75,1.95h0Z"/>
    <path class="st4" d="M628.67,238.42c-2.87,0-5.43-.6-7.7-1.8s-4.13-2.72-5.6-4.55-2.57-3.75-3.3-5.75l2.3.2.1,3.2c.07,2.33-.55,4.28-1.85,5.85s-2.92,2.35-4.85,2.35-3.43-.65-4.7-1.95-1.9-2.92-1.9-4.85v-60.5c0-1.93.63-3.53,1.9-4.8s2.83-1.9,4.7-1.9,3.53.63,4.8,1.9c1.27,1.27,1.9,2.87,1.9,4.8v23.7l-2.2-1c1.33-2,2.78-3.7,4.35-5.1,1.57-1.4,3.37-2.47,5.4-3.2s4.28-1.1,6.75-1.1c4.33,0,8.18,1.17,11.55,3.5s6,5.52,7.9,9.55,2.85,8.72,2.85,14.05-.95,10.27-2.85,14.4c-1.9,4.13-4.52,7.33-7.85,9.6-3.33,2.27-7.23,3.4-11.7,3.4h0ZM625.57,226.22c3.73.07,6.63-1.23,8.7-3.9s3.1-6.37,3.1-11.1-1.03-8.58-3.1-11.35c-2.07-2.77-4.93-4.15-8.6-4.15s-6.52,1.4-8.55,4.2c-2.03,2.8-3.05,6.53-3.05,11.2,0,3.2.48,5.93,1.45,8.2.97,2.27,2.32,3.98,4.05,5.15s3.73,1.75,6,1.75h0Z"/>
    <path class="st4" d="M668.67,179.42c-2.07,0-3.77-.68-5.1-2.05-1.33-1.37-2-3.28-2-5.75s.67-4.28,2-5.65,3.03-2.05,5.1-2.05c2.2,0,3.97.68,5.3,2.05,1.33,1.37,2,3.25,2,5.65s-.67,4.38-2,5.75-3.1,2.05-5.3,2.05ZM668.77,237.92c-1.87,0-3.45-.67-4.75-2s-1.95-2.9-1.95-4.7v-40.2c0-1.8.65-3.35,1.95-4.65,1.3-1.3,2.88-1.95,4.75-1.95s3.35.65,4.65,1.95c1.3,1.3,1.95,2.85,1.95,4.65v40.2c0,1.8-.65,3.37-1.95,4.7s-2.85,2-4.65,2Z"/>
    <path class="st4" d="M695.97,237.92c-1.87,0-3.43-.63-4.7-1.9-1.27-1.27-1.9-2.87-1.9-4.8v-40.1c0-1.93.63-3.53,1.9-4.8s2.83-1.9,4.7-1.9,3.45.65,4.75,1.95,1.95,2.88,1.95,4.75v6.1l-2.7-1.3c2.13-4,4.63-7,7.5-9s6.27-3,10.2-3c3.6,0,6.82.78,9.65,2.35s5.05,3.88,6.65,6.95c1.6,3.07,2.4,6.83,2.4,11.3v26.7c0,1.93-.63,3.53-1.9,4.8s-2.83,1.9-4.7,1.9-3.54-.63-4.8-1.9c-1.27-1.27-1.9-2.87-1.9-4.8v-24.5c0-3.13-.83-5.65-2.5-7.55-1.67-1.9-4.03-2.85-7.1-2.85-2.27,0-4.2.5-5.8,1.5s-2.83,2.32-3.7,3.95c-.87,1.63-1.3,3.45-1.3,5.45v24c0,1.93-.63,3.53-1.9,4.8s-2.87,1.9-4.8,1.9h0Z"/>
    <path class="st4" d="M769.17,237.22c-4.8,0-8.87-1.23-12.2-3.7s-5.85-5.68-7.55-9.65-2.55-8.25-2.55-12.85c0-3.33.48-6.62,1.45-9.85.97-3.23,2.4-6.15,4.3-8.75s4.27-4.67,7.1-6.2c2.83-1.53,6.12-2.3,9.85-2.3,3.4,0,6.28.6,8.65,1.8s4.35,2.9,5.95,5.1v-1c0-1.6.63-2.95,1.9-4.05s2.83-1.65,4.7-1.65,3.43.63,4.7,1.9c1.27,1.27,1.9,2.87,1.9,4.8v43c0,5.27-1.08,9.73-3.25,13.4s-5.18,6.45-9.05,8.35c-3.87,1.9-8.33,2.85-13.4,2.85-2.2,0-4.43-.2-6.7-.6-2.27-.4-4.37-.98-6.3-1.75s-3.57-1.68-4.9-2.75c-1.2-.87-2.02-1.8-2.45-2.8s-.55-2.13-.35-3.4c.13-1.6.78-2.95,1.95-4.05s2.68-1.55,4.55-1.35c1.27.13,2.37.45,3.3.95s1.87,1.03,2.8,1.6,2.03,1.05,3.3,1.45c1.27.4,2.83.6,4.7.6,4.4,0,7.62-1.03,9.65-3.1s3.05-5.13,3.05-9.2v-3.8c-1.87,2.27-4.04,4-6.5,5.2-2.47,1.2-5.33,1.8-8.6,1.8h0ZM772.27,225.32c3.8,0,6.73-1.3,8.8-3.9,2.07-2.6,3.1-6.23,3.1-10.9s-1.05-8.37-3.15-10.9c-2.1-2.53-5.02-3.8-8.75-3.8-2.47,0-4.58.6-6.35,1.8-1.77,1.2-3.1,2.88-4,5.05s-1.35,4.82-1.35,7.95c0,4.87,1.03,8.53,3.1,11,2.07,2.47,4.93,3.7,8.6,3.7h0Z"/>
    <path class="st4" d="M442.27,358.42c-5.07,0-9.62-.82-13.65-2.45s-7.2-3.78-9.5-6.45-3.45-5.53-3.45-8.6c0-1.87.6-3.4,1.8-4.6s2.83-1.8,4.9-1.8c1.8,0,3.12.5,3.95,1.5.83,1,1.65,2.13,2.45,3.4,1.13,1.8,2.73,3.35,4.8,4.65,2.07,1.3,4.83,1.95,8.3,1.95,1.93,0,3.75-.25,5.45-.75s3.05-1.35,4.05-2.55c1-1.2,1.5-2.77,1.5-4.7s-.53-3.4-1.6-4.6-2.57-2.27-4.5-3.2c-1.93-.93-4.23-1.9-6.9-2.9-2.33-.93-4.72-1.93-7.15-3s-4.65-2.38-6.65-3.95-3.62-3.57-4.85-6-1.85-5.48-1.85-9.15c0-4.33.98-7.96,2.95-10.9,1.97-2.93,4.65-5.15,8.05-6.65s7.23-2.25,11.5-2.25c3.07,0,5.92.38,8.55,1.15,2.63.77,4.92,1.82,6.85,3.15s3.45,2.87,4.55,4.6c1.1,1.73,1.68,3.57,1.75,5.5,0,1.93-.57,3.52-1.7,4.75s-2.67,1.85-4.6,1.85c-1.47,0-2.58-.25-3.35-.75-.77-.5-1.52-1.38-2.25-2.65-.87-1.6-2.03-2.87-3.5-3.8s-3.53-1.4-6.2-1.4c-1.67,0-3.17.27-4.5.8s-2.38,1.3-3.15,2.3-1.15,2.27-1.15,3.8c0,1.93.62,3.54,1.85,4.8,1.23,1.27,2.87,2.37,4.9,3.3s4.22,1.87,6.55,2.8c2.67,1.07,5.2,2.2,7.6,3.4,2.4,1.2,4.56,2.6,6.5,4.2,1.93,1.6,3.43,3.54,4.5,5.8,1.07,2.27,1.6,5.03,1.6,8.3,0,4.6-1.07,8.48-3.2,11.65-2.13,3.17-5.03,5.54-8.7,7.1-3.67,1.57-7.83,2.35-12.5,2.35h0Z"/>
    <path class="st4" d="M499.07,358.42c-4.87,0-9.15-1.2-12.85-3.6s-6.6-5.67-8.7-9.8c-2.1-4.13-3.15-8.77-3.15-13.9s1.03-9.73,3.1-13.8c2.07-4.07,4.98-7.32,8.75-9.75s8.15-3.65,13.15-3.65c3.47,0,6.52.55,9.15,1.65s4.72,2.55,6.25,4.35c1.53,1.8,2.3,3.73,2.3,5.8.07,1.87-.52,3.3-1.75,4.3s-2.68,1.5-4.35,1.5c-1.07,0-1.98-.18-2.75-.55s-1.42-.82-1.95-1.35c-.6-.8-1.43-1.62-2.5-2.45-1.07-.83-2.63-1.25-4.7-1.25-2.27,0-4.23.6-5.9,1.8-1.67,1.2-2.93,2.95-3.8,5.25s-1.3,5.05-1.3,8.25c0,4.8,1,8.5,3,11.1s4.8,3.9,8.4,3.9c2.53,0,4.43-.58,5.7-1.75,1.27-1.17,2.27-2.42,3-3.75.73-1.13,1.45-2.1,2.15-2.9s1.75-1.2,3.15-1.2c1.87,0,3.4.65,4.6,1.95s1.8,2.92,1.8,4.85c-.07,1.6-.6,3.28-1.6,5.05s-2.42,3.42-4.25,4.95-4.02,2.75-6.55,3.65c-2.54.9-5.33,1.35-8.4,1.35h0Z"/>
    <path class="st4" d="M536.97,357.92c-1.8,0-3.35-.65-4.65-1.95-1.3-1.3-1.95-2.88-1.95-4.75v-60.6c0-1.87.65-3.45,1.95-4.75,1.3-1.3,2.85-1.95,4.65-1.95s3.45.65,4.75,1.95,1.95,2.88,1.95,4.75v26.6l-3-1.3c2.2-4,4.77-7,7.7-9,2.93-2,6.33-3,10.2-3,3.6,0,6.82.78,9.65,2.35s5.05,3.88,6.65,6.95c1.6,3.07,2.4,6.83,2.4,11.3v26.7c0,1.87-.63,3.45-1.9,4.75s-2.83,1.95-4.7,1.95-3.45-.65-4.75-1.95-1.95-2.88-1.95-4.75v-24.5c0-3.13-.83-5.65-2.5-7.55s-4-2.85-7-2.85c-2.27,0-4.22.5-5.85,1.5s-2.87,2.32-3.7,3.95c-.83,1.63-1.25,3.45-1.25,5.45v24c0,1.87-.65,3.45-1.95,4.75s-2.88,1.95-4.75,1.95h0Z"/>
    <path class="st4" d="M612.97,358.42c-5,0-9.4-1.18-13.2-3.55s-6.75-5.63-8.85-9.8c-2.1-4.17-3.15-8.85-3.15-14.05s1.05-9.73,3.15-13.8c2.1-4.07,5.05-7.3,8.85-9.7,3.8-2.4,8.2-3.6,13.2-3.6s9.5,1.2,13.3,3.6,6.75,5.63,8.85,9.7,3.15,8.67,3.15,13.8-1.05,9.88-3.15,14.05c-2.1,4.17-5.05,7.43-8.85,9.8s-8.23,3.55-13.3,3.55ZM612.97,346.22c3.67,0,6.52-1.28,8.55-3.85,2.03-2.57,3.05-6.35,3.05-11.35s-1.02-8.5-3.05-11.1c-2.03-2.6-4.88-3.9-8.55-3.9s-6.5,1.3-8.5,3.9-3,6.3-3,11.1,1,8.78,3,11.35,4.83,3.85,8.5,3.85Z"/>
    <path class="st4" d="M655.87,357.92c-1.87,0-3.43-.65-4.7-1.95-1.27-1.3-1.9-2.92-1.9-4.85v-60.5c0-1.93.63-3.53,1.9-4.8s2.83-1.9,4.7-1.9,3.53.63,4.8,1.9c1.27,1.27,1.9,2.87,1.9,4.8v60.5c0,1.93-.63,3.55-1.9,4.85-1.27,1.3-2.87,1.95-4.8,1.95Z"/>
    <path class="st4" d="M691.37,358.42c-3.07,0-5.95-.6-8.65-1.8-2.7-1.2-4.9-2.95-6.6-5.25s-2.55-5.15-2.55-8.55c0-4.87,1.58-8.68,4.75-11.45,3.17-2.77,8.28-4.68,15.35-5.75,2.2-.33,4.22-.65,6.05-.95,1.83-.3,3.3-.77,4.4-1.4,1.1-.63,1.65-1.62,1.65-2.95,0-1.07-.28-2-.85-2.8-.57-.8-1.38-1.4-2.45-1.8s-2.4-.6-4-.6c-2.07,0-3.77.38-5.1,1.15-1.33.77-2.43,1.72-3.3,2.85-.87.87-1.83,1.58-2.9,2.15s-2.3.85-3.7.85c-1.87,0-3.35-.48-4.45-1.45-1.1-.97-1.65-2.28-1.65-3.95s.53-3.25,1.6-4.75c1.07-1.5,2.55-2.85,4.45-4.05,1.9-1.2,4.12-2.15,6.65-2.85s5.27-1.05,8.2-1.05c4.53,0,8.33.82,11.4,2.45s5.38,3.92,6.95,6.85,2.35,6.33,2.35,10.2v19.7c0,.87.1,1.45.3,1.75s.6.55,1.2.75c1.07.4,2.07,1.07,3,2s1.4,2.2,1.4,3.8c0,1.8-.65,3.33-1.95,4.6-1.3,1.27-3.18,1.87-5.65,1.8-2.73-.07-4.85-.75-6.35-2.05s-2.48-3.02-2.95-5.15v-.7h-.3c-1.87,2.73-4.02,4.82-6.45,6.25s-5.72,2.15-9.85,2.15h0ZM694.27,347.12c2.13,0,4.07-.43,5.8-1.3s3.12-2.1,4.15-3.7,1.55-3.5,1.55-5.7v-3.5c0-.2-.05-.3-.15-.3s-.28.07-.55.2c-.8.53-1.75.93-2.85,1.2-1.1.27-2.27.48-3.5.65-1.23.17-2.48.42-3.75.75-3.07.6-5.18,1.42-6.35,2.45s-1.75,2.28-1.75,3.75c0,1.67.62,3,1.85,4s3.08,1.5,5.55,1.5h0Z"/>
    <path class="st4" d="M740.67,357.92c-1.8,0-3.35-.65-4.65-1.95-1.3-1.3-1.95-2.88-1.95-4.75v-40.1c0-1.87.67-3.45,2-4.75s2.97-1.95,4.9-1.95,3.57.67,4.7,2,1.7,2.9,1.7,4.7v4.7l-1.9-1.2c.73-1.6,1.7-3.22,2.9-4.85s2.67-3.02,4.4-4.15c1.73-1.13,3.63-1.7,5.7-1.7s3.85.6,5.15,1.8c1.3,1.2,1.95,2.8,1.95,4.8,0,1.87-.68,3.45-2.05,4.75s-3.12,1.95-5.25,1.95c-2.53,0-4.6.45-6.2,1.35-1.6.9-2.78,2.17-3.55,3.8-.77,1.63-1.15,3.55-1.15,5.75v23.1c0,1.87-.65,3.45-1.95,4.75s-2.88,1.95-4.75,1.95h0Z"/>
    <path class="st4" d="M790.37,358.72c-4.47,0-8.33-.7-11.6-2.1-3.27-1.4-5.78-3.13-7.55-5.2-1.77-2.07-2.65-4.03-2.65-5.9,0-1.47.53-2.85,1.6-4.15s2.63-1.95,4.7-1.95c1.53,0,2.77.3,3.7.9s1.6,1.17,2,1.7c1.67,1.87,3.37,3.25,5.1,4.15s3.63,1.35,5.7,1.35c2.2,0,3.78-.43,4.75-1.3s1.45-1.93,1.45-3.2c0-1-.38-1.9-1.15-2.7-.77-.8-1.88-1.52-3.35-2.15s-3.27-1.28-5.4-1.95c-2.27-.73-4.43-1.52-6.5-2.35-2.07-.83-3.92-1.85-5.55-3.05-1.63-1.2-2.92-2.68-3.85-4.45-.93-1.77-1.4-3.95-1.4-6.55,0-3.07.82-5.82,2.45-8.25s3.92-4.35,6.85-5.75,6.3-2.1,10.1-2.1,6.98.62,9.75,1.85,4.95,2.8,6.55,4.7c1.6,1.9,2.4,3.92,2.4,6.05,0,1.6-.43,2.93-1.3,4s-2.23,1.6-4.1,1.6c-1.47,0-2.72-.33-3.75-1s-1.85-1.33-2.45-2c-.47-.6-1.02-1.2-1.65-1.8-.63-.6-1.42-1.12-2.35-1.55s-2.1-.65-3.5-.65c-2,0-3.47.4-4.4,1.2-.93.8-1.4,1.77-1.4,2.9,0,1.2.45,2.17,1.35,2.9.9.73,2.27,1.42,4.1,2.05,1.83.63,4.15,1.45,6.95,2.45,2.33.8,4.42,1.68,6.25,2.65s3.4,2.05,4.7,3.25,2.3,2.57,3,4.1,1.05,3.33,1.05,5.4c0,3.27-.82,6.18-2.45,8.75s-3.98,4.57-7.05,6-6.77,2.15-11.1,2.15h0Z"/>
  </g>
</svg>