<svg xmlns="http://www.w3.org/2000/svg" version="1.1" xmlns:xlink="http://www.w3.org/1999/xlink" width="311.58" height="409.47"><svg id="SvgjsSvg1015" xmlns="http://www.w3.org/2000/svg" version="1.1" viewBox="0 0 311.58 409.47">
  <!-- Generator: Adobe Illustrator 29.5.0, SVG Export Plug-In . SVG Version: 2.1.0 Build 137)  -->
  <defs>
    <style>
      .st0 {
        fill: #dc4242;
        stroke: #dc4242;
        stroke-width: .67px;
      }

      .st0, .st1, .st2 {
        stroke-miterlimit: 10;
      }

      .st1 {
        fill: #dc4243;
      }

      .st1, .st2 {
        stroke: #dc4243;
        stroke-width: 4px;
      }

      .st2 {
        fill: none;
      }
    </style>
  </defs>
  <polygon class="st0" points="102.27 182.44 211.48 182.44 207.86 146.05 105.88 146.05 102.27 182.44"></polygon>
  <polygon class="st0" points="108.1 119.66 205.64 119.66 202.02 83.27 111.72 83.27 108.1 119.66"></polygon>
  <polygon class="st0" points="219.53 271.6 94.22 271.6 90.6 307.99 223.14 307.99 219.53 271.6"></polygon>
  <polygon class="st1" points="53.57 378.63 46.57 363.75 63.41 365.02 53.57 378.63"></polygon>
  <polygon class="st0" points="96.43 245.21 217.31 245.21 213.69 208.82 100.05 208.82 96.43 245.21"></polygon>
  <path class="st2" d="M87.66,330.55L114.34,62.21l-58.19-4.41-26.68,268.34"></path>
  <polyline class="st2" points="88.1 326.19 87.44 332.72 53.35 380.81 29.26 328.32 29.95 321.38"></polyline>
  <line class="st2" x1="70.47" y1="333.02" x2="97.52" y2="60.94"></line>
  <line class="st2" x1="45.99" y1="331.17" x2="73.04" y2="59.09"></line>
  <path class="st2" d="M114.34,62.22l-58.19-4.41,2.27-22.89c.84-8.47,9.47-14.73,19.26-13.99l22.72,1.72c9.79.74,17.05,8.21,16.21,16.68l-2.27,22.89h0Z"></path>
  <polyline class="st2" points="29.47 326.15 45.99 331.17 58.7 327.06 70.5 332.69 87.66 330.55"></polyline>
  <path class="st2" d="M226.08,330.55l-26.68-268.34,58.19-4.41,26.68,268.34"></path>
  <polygon class="st1" points="260.17 378.63 267.18 363.75 250.34 365.02 260.17 378.63"></polygon>
  <path class="st2" d="M199.41,62.22l58.19-4.41-2.27-22.89c-.84-8.47-9.47-14.73-19.26-13.99l-22.72,1.72c-9.79.74-17.05,8.21-16.21,16.68l2.27,22.89h0Z"></path>
  <polyline class="st2" points="225.64 326.19 226.3 332.72 260.39 380.81 284.48 328.32 283.79 321.38"></polyline>
  <line class="st2" x1="243.28" y1="333.02" x2="216.22" y2="60.94"></line>
  <line class="st2" x1="267.75" y1="331.17" x2="240.7" y2="59.09"></line>
  <polyline class="st2" points="284.27 326.15 267.75 331.17 255.04 327.06 243.24 332.69 226.08 330.55"></polyline>
</svg><style>@media (prefers-color-scheme: light) { :root { filter: none; } }
@media (prefers-color-scheme: dark) { :root { filter: none; } }
</style></svg>